<?xml version="1.0" standalone="no"?><!DOCTYPE svg PUBLIC "-//W3C//DTD SVG 1.1//EN" "http://www.w3.org/Graphics/SVG/1.1/DTD/svg11.dtd"><svg t="1484230923879" class="icon" style="" viewBox="0 0 1024 1024" version="1.1" xmlns="http://www.w3.org/2000/svg" p-id="689" xmlns:xlink="http://www.w3.org/1999/xlink" width="200" height="200"><defs><style type="text/css"></style></defs><path d="M83.371314 695.572946c0-27.891234 3.704368-52.077076 11.092639-72.567759 7.40976-20.481474 20.776186-39.836287 40.141232-58.054207l0 261.264399c-19.912515-17.629519-33.426297-36.710087-40.561811-57.180304C86.928327 748.511645 83.371314 724.05258 83.371314 695.572946M883.414613 564.949956c17.092283 13.093203 30.879288 31.175023 41.403992 54.213739 10.547217 23.059182 15.809057 48.518017 15.809057 76.409251 0 28.479635-4.124947 52.833299-12.397355 73.009827-8.230452 20.218484-23.175839 39.424918-44.815695 57.632605L883.414613 564.949956zM781.809517 526.545274c10.819416 0 21.617343 4.263094 32.437783 12.777001 10.818393 8.556886 16.207124 20.523429 16.207124 35.868929l0 221.154889c0 6.830569-1.537006 13.229303-4.672416 19.21769-3.13541 5.978155-6.967692 11.365862-11.533684 16.208147-4.546549 4.831029-9.809413 8.546653-15.787568 11.082406-5.978155 2.588965-11.534707 3.861958-16.650215 3.861958l-59.779501 0c-14.798031 0-27.15343-4.546549-37.130665-13.671371-9.956769-9.113565-14.945387-21.333888-14.945387-36.69883L669.954987 575.191204c0-15.3455 5.557576-27.311019 16.650215-35.868929 11.092639-8.513908 22.901593-12.777001 35.425837-12.777001L781.809517 526.545274zM293.422308 526.545274c16.502859 0 29.869285 3.967358 40.120766 11.935843 10.251481 7.956206 15.365966 20.50194 15.365966 37.572734l0 215.156268c0 17.071817-4.399193 30.458709-13.239536 40.142256-8.819876 9.671267-20.334117 14.502295-34.583656 14.502295l-62.327534 0c-17.070794 0-29.720905-5.114484-37.993313-15.365966-8.250918-10.218736-12.376888-22.744004-12.376888-37.551244L188.388113 576.053851c0-17.070794 5.115508-29.615505 15.365966-37.572734 10.251481-7.967462 22.50148-11.935843 36.731576-11.935843L293.422308 526.545274zM510.293637 151.709237c44.962028 0 87.377046 7.65126 127.222543 23.038716 39.845497 15.376199 74.704422 37.141922 104.594173 65.338101 29.869285 28.1532 53.360302 61.905932 70.432119 101.152794 17.070794 39.299051 25.616424 82.555228 25.616424 129.779785L781.809517 471.018633c-14.208607 0-27.048029 0.157589-38.413891 0.430812-11.388375 0.304945-17.092283 0.147356-17.092283-0.430812 0-35.258015-5.978155-66.452481-17.933441-93.459578-11.957333-27.049053-27.742854-49.687656-47.38317-67.895343-19.638269-18.23941-42.413995-31.879058-68.304665-40.983413-25.89067-9.114588-53.360302-13.661138-82.388429-13.661138-28.458145 0-55.506175 5.967922-81.123622 17.933441s-48.244794 28.0171-67.884087 48.224328c-19.617803 20.207227-35.425837 43.256176-47.382147 69.168336-11.95631 25.880437-17.934464 52.8026-17.934464 80.671321L183.271582 471.016587c0-47.224558 8.546653-90.480734 25.617447-129.779785 17.070794-39.246863 40.414455-72.998571 70.010517-101.152794 29.595039-28.196179 64.327074-49.960879 104.173594-65.338101C422.918637 159.360498 465.332632 151.709237 510.293637 151.709237" p-id="690"></path></svg>