<?xml version="1.0" standalone="no"?><!DOCTYPE svg PUBLIC "-//W3C//DTD SVG 1.1//EN" "http://www.w3.org/Graphics/SVG/1.1/DTD/svg11.dtd"><svg t="1485773653117" class="icon" style="" viewBox="0 0 1024 1024" version="1.1" xmlns="http://www.w3.org/2000/svg" p-id="13660" xmlns:xlink="http://www.w3.org/1999/xlink" width="200" height="200"><defs><style type="text/css"></style></defs><path d="M874.2 288.024 874.2 288.024 632.736 48.04 149.8 48.04c-33.336 0-60.368 26.864-60.368 60L89.432 948c0 33.136 27.024 60 60.368 60l724.408 0c33.336 0 60.368-26.864 60.368-60L934.576 348.024 874.2 288.024zM874.2 888c0 33.136-27.024 60-60.368 60L210.168 948c-33.344 0-60.368-26.864-60.368-60L149.8 168.032c0-33.136 27.024-60 60.368-60L512 108.032l0 359.984 362.2 0L874.2 888z" p-id="13661" fill="#dd6572"></path></svg>