<?xml version="1.0" standalone="no"?><!DOCTYPE svg PUBLIC "-//W3C//DTD SVG 1.1//EN" "http://www.w3.org/Graphics/SVG/1.1/DTD/svg11.dtd"><svg t="1486821484067" class="icon" style="" viewBox="0 0 1024 1024" version="1.1" xmlns="http://www.w3.org/2000/svg" p-id="2506" xmlns:xlink="http://www.w3.org/1999/xlink" width="200" height="200"><defs><style type="text/css"></style></defs><path d="M245.823 165.641c0 0 0 0 0 0 0 84.898 68.824 153.721 153.721 153.721 84.898 0 153.721-68.824 153.721-153.721 0 0 0 0 0 0 0-84.898-68.824-153.721-153.721-153.721-84.898 0-153.721 68.824-153.721 153.721z" fill="#e9504a" p-id="2507"></path><path d="M29.404 462.337c0 71.383 57.867 129.25 129.25 129.25s129.25-57.867 129.25-129.25c0-71.383-57.867-129.25-129.25-129.25-71.383 0-129.25 57.867-129.25 129.25z" fill="#e9504a" p-id="2508"></path><path d="M146.747 794.282c0 64.357 52.172 116.529 116.529 116.529s116.529-52.172 116.529-116.529c0-64.357-52.172-116.529-116.529-116.529-64.357 0-116.529 52.172-116.529 116.529z" fill="#e9504a" p-id="2509"></path><path d="M460.112 911.782c0 55.393 44.905 100.298 100.298 100.298 55.393 0 100.298-44.905 100.298-100.298 0 0 0 0 0 0 0-55.393-44.905-100.298-100.298-100.298-55.393 0-100.298 44.905-100.298 100.298 0 0 0 0 0 0z" fill="#e9504a" p-id="2510"></path><path d="M723.249 793.53c0 47.866 38.802 86.668 86.668 86.668s86.668-38.802 86.668-86.668c0-47.866-38.802-86.668-86.668-86.668-47.866 0-86.668 38.802-86.668 86.668z" fill="#e9504a" p-id="2511"></path><path d="M845.888 573.915c0 0 0 0 0 0 0 41.064 33.29 74.354 74.354 74.354 41.064 0 74.354-33.29 74.354-74.354 0 0 0 0 0 0 0 0 0 0 0 0 0-41.064-33.29-74.354-74.354-74.354-41.064 0-74.354 33.29-74.354 74.354 0 0 0 0 0 0z" fill="#e9504a" p-id="2512"></path><path d="M836.645 367.271c0 30.785 24.957 55.742 55.742 55.742s55.742-24.957 55.742-55.742c0-30.785-24.957-55.742-55.742-55.742-30.785 0-55.742 24.957-55.742 55.742z" fill="#e9504a" p-id="2513"></path><path d="M726.696 219.002c0 22.981 18.63 41.611 41.611 41.611s41.611-18.63 41.611-41.611c0-22.981-18.63-41.611-41.611-41.611-22.981 0-41.611 18.63-41.611 41.611z" fill="#e9504a" p-id="2514"></path></svg>