<?xml version="1.0" standalone="no"?><!DOCTYPE svg PUBLIC "-//W3C//DTD SVG 1.1//EN" "http://www.w3.org/Graphics/SVG/1.1/DTD/svg11.dtd"><svg t="1486821598229" class="icon" style="" viewBox="0 0 1024 1024" version="1.1" xmlns="http://www.w3.org/2000/svg" p-id="4894" xmlns:xlink="http://www.w3.org/1999/xlink" width="200" height="200"><defs><style type="text/css"></style></defs><path d="M384 469.333333h170.666667v42.666667h-170.666667zM384 640h320v42.666667H384zM693.717333 554.666667H394.282667a10.24 10.24 0 0 0-10.282667 10.325333v22.016c0 5.76 4.608 10.325333 10.282667 10.325333h299.434666a10.24 10.24 0 0 0 10.282667-10.325333v-22.016a10.261333 10.261333 0 0 0-10.282667-10.325333z" fill="#01B8B8" p-id="4895"></path><path d="M0 0v1024h1024V0H0z m768 725.226667C768 748.842667 749.013333 768 725.525333 768H341.141333c-23.466667 0-42.474667-19.136-42.474666-42.773333V682.666667h-42.666667v-64h42.666667v-192h-42.666667v-64h42.666667v-63.893334c0-23.616 18.986667-42.773333 42.474666-42.773333h384.384c23.466667 0 42.474667 19.136 42.474667 42.773333v426.453334z" fill="#01B8B8" p-id="4896"></path><path d="M693.781333 298.666667H607.573333a10.24 10.24 0 0 0-10.24 10.24v132.138666c0 6.165333 2.858667 8.746667 6.549334 5.632l44.224-37.546666a4.053333 4.053333 0 0 1 5.141333 0l44.224 37.546666c3.605333 3.050667 6.528 0.661333 6.528-5.632V308.906667a10.325333 10.325333 0 0 0-10.218667-10.24z" fill="#01B8B8" p-id="4897"></path></svg>