<?xml version="1.0" standalone="no"?><!DOCTYPE svg PUBLIC "-//W3C//DTD SVG 1.1//EN" "http://www.w3.org/Graphics/SVG/1.1/DTD/svg11.dtd"><svg t="1485774135614" class="icon" style="" viewBox="0 0 1024 1024" version="1.1" xmlns="http://www.w3.org/2000/svg" p-id="18429" xmlns:xlink="http://www.w3.org/1999/xlink" width="200" height="200"><defs><style type="text/css"></style></defs><path d="M919.726495 782.890364l-56.646456-56.648503c-0.348121-0.346073-0.704433-0.655287-1.06996-0.965524-0.071672-0.063481-0.137201-0.126962-0.211944-0.190443a22.023773 22.023773 0 0 0-1.149824-0.864159c-0.086006-0.052218-0.164846-0.12389-0.243684-0.176108a17.878062 17.878062 0 0 0-1.231734-0.754604c-0.086006-0.043003-0.176108-0.106484-0.266211-0.149487-0.419793-0.230374-0.850849-0.430032-1.281904-0.61945-0.097269-0.043003-0.19761-0.097269-0.297951-0.142321-0.442318-0.185323-0.89078-0.340954-1.347433-0.490441-0.100341-0.032764-0.196586-0.075768-0.305118-0.107508a16.479434 16.479434 0 0 0-1.497944-0.383957l-0.200681-0.054265a18.21492 18.21492 0 0 0-7.223511 0c-0.028669 0.009215-0.054266 0.01843-0.078839 0.022525-0.545731 0.109556-1.095557 0.250852-1.63105 0.419793-0.05017 0.013311-0.093174 0.030717-0.144368 0.045051-0.512967 0.166893-1.01979 0.349145-1.514326 0.556994-0.025597 0.009215-0.044027 0.01843-0.061433 0.026621a17.920041 17.920041 0 0 0-5.679492 3.826259l-56.650551 56.648503c-7.021806 7.023853-7.021806 18.408434 0 25.432288 7.023853 7.022829 18.41253 7.022829 25.437407 0l20.603644-20.604668c-1.933095 9.955237-4.554242 20.627194-8.131697 31.228502-16.111859 47.757083-43.647208 71.977091-81.839154 71.977091-85.431968 0-95.31758-119.059433-95.31758-208.617659V285.762299c0-56.425296-13.485594-104.230502-39.00184-138.252164-23.679396-31.571504-57.313005-49.677892-92.280737-49.677892-34.965684 0-68.596221 18.106388-92.280736 49.677892-8.298591 11.065129-15.314253 23.597485-21.017294 37.398435-5.704065-13.80095-12.718704-26.334331-21.017294-37.395363-23.682468-31.572528-57.316077-49.680964-92.278689-49.680964-34.967732 0-68.601341 18.108436-92.280737 49.680964-7.731358 10.304382-14.347705 21.884525-19.830611 34.578655-17.767482-51.044779-43.47929-77.346345-45.125698-78.992753-7.019758-7.022829-18.440175-7.05457-25.460956-0.030717-7.021806 7.023853-7.05457 18.378742-0.030717 25.401571 0.12901 0.132081 13.047371 13.456925 25.773242 39.402179 11.709153 23.881101 25.668805 63.719455 25.668805 117.890157v566.495272c0 9.932712 8.05081 17.983522 17.987617 17.983522 9.92964 0 17.979426-8.05081 17.979427-17.983522v-566.495272c0-48.580287 11.001648-88.923417 31.811093-116.669685 17.07124-22.759947 39.62129-35.292303 63.508535-35.292304 23.87803 0 46.437295 12.532356 63.503415 35.292304 20.808421 27.746268 31.810069 68.089398 31.81007 116.669685v566.495272c0 8.687667 6.16379 15.941895 14.359991 17.615947 1.169277 0.239589 2.383605 0.363479 3.622507 0.363479 1.240949 0 2.453229-0.12389 3.624554-0.363479 8.196202-1.674053 14.359992-8.92828 14.359991-17.615947V285.760251c0-48.581311 10.996528-88.92444 31.81007-116.669685 17.066121-22.758923 39.62129-35.293327 63.503415-35.293327 23.883149 0 46.437295 12.534404 63.508535 35.293327 20.80535 27.746268 31.80495 68.088374 31.80495 116.669685v396.544643c0 31.079015 0 88.928536 14.866815 140.577407 24.732974 85.961316 76.961364 104.006271 116.418833 104.006271 30.787208 0 57.102085-10.706769 78.215624-31.821332 16.091382-16.089334 28.866399-38.106964 37.980002-65.447773 5.951845-17.85656 9.556946-35.597421 11.733726-50.596318l29.298479 29.298479a17.924136 17.924136 0 0 0 12.718703 5.265842c4.601341 0 9.201657-1.752892 12.714608-5.265842 7.028973-7.01771 7.028973-18.406386 0.004096-25.431264z" fill="#9768D2" p-id="18430"></path></svg>