<?xml version="1.0" standalone="no"?><!DOCTYPE svg PUBLIC "-//W3C//DTD SVG 1.1//EN" "http://www.w3.org/Graphics/SVG/1.1/DTD/svg11.dtd"><svg t="1486560459423" class="icon" style="" viewBox="0 0 1024 1024" version="1.1" xmlns="http://www.w3.org/2000/svg" p-id="1000" xmlns:xlink="http://www.w3.org/1999/xlink" width="200" height="200"><defs><style type="text/css"></style></defs><path d="M536.806989 13.267165c0-7.154957 2.347464-9.503445 7.154957-7.154957l89.440032 39.353286c7.154957 0 7.154957 2.403746 0 7.154957l-14.309914 21.465894c0 2.403746 0 7.154957 0 14.309914-4.808516 71.551616-5.982248 139.525754-3.577478 203.921389l128.792295-3.577478 53.6632-53.6632 64.396659 60.819181c2.346441 2.403746 3.577478 4.807493 3.577478 7.154957 0 2.403746-2.40477 3.577478-7.154957 3.577478L619.092064 317.361021c4.751211 93.016487 17.887392 171.724083 39.353286 236.119719 38.122249-57.240679 69.146846-110.904902 93.016487-160.990624 0-7.154957 2.346441-8.329712 7.154957-3.577478l67.974138 53.6632c7.154957 4.807493 5.92392 10.732435-3.577478 17.887392-52.490491 54.894238-100.172467 103.749946-143.103232 146.68071 28.620851 66.799382 71.551616 115.712395 128.792295 146.68071 14.309914 7.154957 26.216081 5.981225 35.775808-3.577478l39.353286-46.508243c2.346441-2.347464 5.92392-3.577478 10.732435-3.577478 2.346441 2.403746 2.346441 5.981225 0 10.732435-16.714683 31.023574-25.043373 65.570391-25.043373 103.749946 4.751211 21.465894 2.346441 36.94954-7.154957 46.508243-11.963473 7.154957-28.620851 4.752234-50.085722-7.154957-88.266299-52.489468-151.489226-118.059859-189.611475-196.766432-69.205175 57.241702-128.793318 98.997712-178.880063 125.214816-7.154957 2.347464-9.558703 0-7.154957-7.154957 66.744123-47.682999 122.812093-98.94143 168.146605-153.835667-31.024597-83.458807-50.086745-183.630251-57.241702-300.516378l-153.835667 7.154957 0 139.525754 78.706573-25.043373c9.503445-2.347464 10.732435 0 3.577478 7.154957l-85.86153 50.085722 0 225.387283c-2.403746 64.396659-34.602076 112.078635-96.594989 143.103232-4.807493 2.347464-7.154957 2.347464-7.154957 0-2.403746 0-3.577478-2.403746-3.577478-7.154957 2.347464-26.273387-8.384971-48.91199-32.19833-67.974138-2.403746-2.403746-2.403746-4.807493 0-7.154957 0-2.403746 2.347464-3.577478 7.154957-3.577478 45.279253 4.752234 65.570391-5.981225 60.819181-32.19833l3.577478-207.498868L286.376333 560.635697c-52.489468 31.023574-91.842755 57.241702-118.059859 78.706573-2.403746 2.403746-5.981225 2.403746-10.732435 0l-39.353286-93.016487c2.347464 0 5.925966-1.173732 10.732435-3.577478 26.217105-4.752234 58.414411-13.0799 96.594989-25.043373l96.594989-28.620851L322.153164 331.670935l-82.284051 3.577478c-26.272363 0-56.06797 3.577478-89.439008 10.732435-4.807493 0-8.384971 0-10.732435 0l-28.620851-32.19833 211.07737-10.732435c0-57.241702 0-107.327424 0-150.258189-2.403746-4.751211-2.403746-8.328689 0-10.732435l7.154957 0 78.706573 35.775808c4.751211 0 5.925966 3.577478 3.577478 10.732435l-14.309914 25.043373-3.577478 89.439008 150.258189-7.154957c0-11.906168 0-32.19833 0-60.819181-2.403746-28.620851-3.577478-51.259454-3.577478-67.974138 0-16.658402 0-41.700751 0-75.129094C537.980721 58.601676 536.806989 32.384571 536.806989 13.267165zM418.747129 9.689686l57.241702 57.241702c2.347464 7.154957 0 11.962449-7.154957 14.309914C394.877489 97.954963 294.706045 121.824603 168.316473 152.792918c-7.154957 0-8.384971-2.347464-3.577478-7.154957C267.258926 105.110943 348.369246 59.775408 408.014694 9.689686 412.765905 4.938476 416.343383 4.938476 418.747129 9.689686zM690.64368 74.086345c71.551616 26.272363 108.500133 52.489468 110.904902 78.706573-4.808516 26.272363-19.119453 45.334511-42.930765 57.241702-21.465894 7.154957-33.429367 1.230014-35.775808-17.887392 0-47.681976-14.309914-84.632539-42.930765-110.904902C679.911244 74.086345 683.488723 71.737858 690.64368 74.086345z" p-id="1001" fill="#d42379"></path></svg>