<?xml version="1.0" standalone="no"?><!DOCTYPE svg PUBLIC "-//W3C//DTD SVG 1.1//EN" "http://www.w3.org/Graphics/SVG/1.1/DTD/svg11.dtd"><svg t="1486821749694" class="icon" style="" viewBox="0 0 1024 1024" version="1.1" xmlns="http://www.w3.org/2000/svg" p-id="9501" xmlns:xlink="http://www.w3.org/1999/xlink" width="200" height="200"><defs><style type="text/css"></style></defs><path d="M518.359579 844.624842c-94.127158 0-188.281263-0.862316-282.394947 0.336842-50.445474 0.660211-73.822316-20.358737-73.512421-72.111158 1.050947-172.570947 1.239579-345.155368-0.107789-517.726316-0.431158-54.770526 24.144842-76.813474 77.190737-76.584421 183.781053 0.781474 367.562105 0.646737 551.343158 0.107789 50.391579-0.148211 72.205474 21.221053 71.68 73.350737-1.765053 174.794105-1.603368 349.628632-0.067368 524.449684 0.431158 49.583158-21.140211 68.850526-68.459789 68.419368C702.140632 844.032 610.250105 844.638316 518.359579 844.624842zM515.866947 341.598316c-76.072421 0-152.158316 0.768-228.217263-0.282947-47.656421-0.646737-70.211368 20.830316-69.766737 68.567579 0.633263 69.362526 0.431158 138.725053 0.053895 208.087579-0.242526 44.624842 22.177684 65.913263 65.886316 65.940211 152.144842 0.107789 304.303158-0.040421 456.448 0.094316 46.255158 0.040421 70.373053-19.334737 68.944842-68.877474-1.913263-67.072-2.223158-134.292211 0.094316-201.337263 1.818947-52.237474-21.450105-73.269895-71.922526-72.501895C663.565474 342.406737 589.716211 341.571368 515.866947 341.598316zM385.967158 292.325053c22.312421 1.684211 30.868211-9.269895 30.814316-31.636211-0.053895-21.315368-5.793684-32.579368-29.817263-32.889263-25.6-0.336842-35.597474 8.96-35.004632 34.856421C352.525474 286.773895 364.611368 293.456842 385.967158 292.325053zM514.923789 292.257684c23.269053 1.104842 30.625684-11.506526 31.663158-32.282947 1.320421-27.297684-13.312-32.282947-36.675368-32.080842-25.923368 0.229053-26.112 15.993263-26.381474 34.654316C483.179789 285.130105 493.635368 294.467368 514.923789 292.257684zM646.238316 292.163368c25.626947 1.886316 27.728842-14.389895 28.577684-34.169263 1.050947-24.198737-10.846316-29.763368-32.323368-30.181053-27.216842-0.525474-34.384842 12.409263-32.794947 36.985263C611.314526 289.643789 627.078737 292.581053 646.238316 292.163368zM769.522526 292.217263c24.535579 1.549474 36.527158-7.895579 36.419368-33.967158-0.107789-23.444211-11.021474-29.547789-32.026947-30.396632-24.576-1.010526-36.378947 6.871579-34.977684 33.253053C740.096 282.219789 746.603789 294.804211 769.522526 292.217263zM416.134737 760.104421c3.098947-23.322947-12.261053-27.526737-32.579368-27.580632-27.445895-0.080842-32.107789 15.898947-31.245474 39.006316 0.983579 26.826105 19.253895 24.427789 37.039158 25.061053C414.679579 797.493895 417.792 781.648842 416.134737 760.104421zM509.210947 732.901053c-25.074526-1.306947-24.885895 16.828632-25.721263 35.880421-1.145263 26.031158 14.403368 28.038737 34.438737 28.092632 25.263158 0.067368 29.049263-14.726737 28.416-35.112421C545.603368 737.738105 531.482947 731.472842 509.210947 732.901053zM646.602105 732.672c-18.809263 0.121263-35.328 1.980632-36.971789 27.149474-1.603368 24.468211 5.470316 37.685895 32.660211 37.254737 21.099789-0.350316 33.589895-5.268211 32.552421-29.749895C673.994105 747.573895 672.080842 731.257263 646.602105 732.672zM805.510737 768.498526c2.492632-20.587789-4.378947-35.624421-31.043368-35.974737-19.375158-0.256-35.449263 2.223158-34.977684 26.88 0.336842 16.990316-3.947789 37.443368 23.417263 36.931368C781.527579 795.998316 804.769684 802.223158 805.510737 768.498526zM286.423579 252.779789c3.260632-22.851368-14.214737-23.902316-33.468632-24.549053-25.546105-0.848842-27.863579 14.834526-27.607579 34.506105 0.309895 23.188211 12.449684 30.329263 33.859368 29.655579C284.065684 291.597474 287.326316 275.941053 286.423579 252.779789zM252.914526 796.294737c20.587789 1.724632 34.640842-3.139368 33.994105-28.052211-0.512-19.658105-3.341474-34.883368-27.890526-35.610947-21.315368-0.646737-33.509053 6.521263-33.738105 29.696C225.091368 782.039579 227.664842 798.221474 252.914526 796.294737z" p-id="9502"></path><path d="M664.926316 513.616842c1.172211 83.2-71.693474 151.754105-152.468211 154.165895-80.545684 2.425263-151.147789-63.636211-152.454737-146.836211-1.414737-88.710737 61.049263-154.893474 148.129684-156.928C594.432 362.010947 663.727158 428.099368 664.926316 513.616842zM517.106526 401.273263c-67.422316-1.360842-122.677895 50.809263-122.583579 115.698526 0.107789 61.359158 53.800421 115.415579 116.183579 117.005474 65.024 1.630316 122.192842-53.369263 122.017684-117.355789C632.549053 453.376 581.605053 402.566737 517.106526 401.273263z" p-id="9503"></path><path d="M488.421053 584.488421c0-49.030737 0-83.024842 0-130.573474 33.536 23.525053 58.273684 40.865684 90.071579 63.164632C548.055579 539.850105 524.584421 557.406316 488.421053 584.488421z" p-id="9504"></path></svg>