<?xml version="1.0" standalone="no"?><!DOCTYPE svg PUBLIC "-//W3C//DTD SVG 1.1//EN" "http://www.w3.org/Graphics/SVG/1.1/DTD/svg11.dtd"><svg t="1485774033376" class="icon" style="" viewBox="0 0 1024 1024" version="1.1" xmlns="http://www.w3.org/2000/svg" p-id="17361" xmlns:xlink="http://www.w3.org/1999/xlink" width="200" height="200"><defs><style type="text/css"></style></defs><path d="M236.395 999.028c-60.583 0-117.537-23.593-160.372-66.433-42.836-42.84-66.427-99.804-66.427-160.397 0-60.58 23.591-117.534 66.428-160.371 42.836-42.836 99.791-66.427 160.371-66.427s117.533 23.591 160.367 66.428c42.833 42.836 66.423 99.79 66.423 160.37 0 60.593-23.589 117.557-66.422 160.396-42.833 42.842-99.786 66.434-160.368 66.434z m0-393.628c-91.973 0-166.798 74.825-166.798 166.798 0 91.99 74.825 166.83 166.798 166.83 91.968 0 166.79-74.84 166.79-166.83 0-91.972-74.822-166.798-166.79-166.798zM463.185 392.017h-60c0-53.524-43.534-97.069-97.044-97.069-40.82 0-77.54 25.796-91.372 64.191l-56.448-20.336c22.378-62.119 81.783-103.855 147.82-103.855 86.594-0.001 157.044 70.46 157.044 157.069z" p-id="17362" fill="#279ca5"></path><path d="M433.185 772.198V392.017" p-id="17363" fill="#279ca5"></path><path d="M403.185 392.017h60v380.182h-60z" p-id="17364" fill="#279ca5"></path><path d="M49.788 709.843L184.525 355.19" p-id="17365" fill="#279ca5"></path><path d="M156.493 344.527l56.088 21.306-134.72 354.65-56.088-21.307zM431.666 228.805h-60c0-15.668-12.743-28.415-28.406-28.415-11.944 0-22.689 7.554-26.738 18.797l-56.451-20.328c12.593-34.972 46.024-58.469 83.189-58.469 48.747 0.001 88.406 39.663 88.406 88.415z" p-id="17366" fill="#279ca5"></path><path d="M401.666 292.168V228.82" p-id="17367" fill="#279ca5"></path><path d="M371.666 228.82h60v63.348h-60z" p-id="17368" fill="#279ca5"></path><path d="M267.523 264.084l19.862-52.195" p-id="17369" fill="#279ca5"></path><path d="M259.351 201.204l56.076 21.336-19.859 52.194-56.076-21.336zM788.359 999.028c-60.583 0-117.542-23.592-160.386-66.431-42.848-42.843-66.445-99.808-66.445-160.399 0-60.579 23.598-117.534 66.446-160.373 42.845-42.835 99.804-66.425 160.385-66.425 60.58 0 117.534 23.591 160.37 66.427 42.837 42.837 66.428 99.791 66.428 160.371 0 60.593-23.591 117.557-66.426 160.396-42.835 42.842-99.79 66.434-160.372 66.434z m0-393.628c-91.991 0-166.831 74.825-166.831 166.798 0 91.99 74.84 166.83 166.831 166.83 91.973 0 166.798-74.84 166.798-166.83 0-91.972-74.825-166.798-166.798-166.798zM621.528 392.017h-60c0-86.608 70.469-157.069 157.086-157.069 66.036 0 125.44 41.736 147.82 103.855l-56.449 20.336c-13.832-38.395-50.551-64.191-91.371-64.191-53.533-0.001-97.086 43.544-97.086 97.069z" p-id="17370" fill="#279ca5"></path><path d="M591.528 772.198V392.017" p-id="17371" fill="#279ca5"></path><path d="M561.528 392.017h60v380.182h-60z" p-id="17372" fill="#279ca5"></path><path d="M974.966 709.843L840.195 355.19" p-id="17373" fill="#279ca5"></path><path d="M868.21 344.534l134.762 354.66-56.09 21.312-134.76-354.66zM653.048 228.805h-60c0-48.752 39.662-88.415 88.414-88.415 37.185 0 70.628 23.497 83.221 58.469l-56.451 20.327c-4.049-11.243-14.807-18.796-26.77-18.796-15.668 0.001-28.414 12.747-28.414 28.415z" p-id="17374" fill="#279ca5"></path><path d="M623.048 292.168V228.82" p-id="17375" fill="#279ca5"></path><path d="M593.048 228.82h60v63.348h-60z" p-id="17376" fill="#279ca5"></path><path d="M757.198 264.084l-19.829-52.195" p-id="17377" fill="#279ca5"></path><path d="M765.386 201.217l19.827 52.195-56.087 21.305-19.827-52.194zM621.528 630.374H433.185v-60h128.343v-92.776H433.185v-60h188.343z" p-id="17378" fill="#279ca5"></path></svg>