<?xml version="1.0" standalone="no"?><!DOCTYPE svg PUBLIC "-//W3C//DTD SVG 1.1//EN" "http://www.w3.org/Graphics/SVG/1.1/DTD/svg11.dtd"><svg t="1486821813597" class="icon" style="" viewBox="0 0 1024 1024" version="1.1" xmlns="http://www.w3.org/2000/svg" p-id="10751" xmlns:xlink="http://www.w3.org/1999/xlink" width="200" height="200"><defs><style type="text/css"></style></defs><path d="M512 512m-416 0a416 416 0 1 0 832 0 416 416 0 1 0-832 0Z" fill="#AEECFF" p-id="10752"></path><path d="M832 506.688H192v271.104C268.352 869.504 383.296 928 512 928s243.712-58.496 320-150.336V506.688z" fill="#F1F1F1" p-id="10753"></path><path d="M832 506.688V390.912a22.464 22.464 0 0 0-22.4-22.4h-595.2a22.528 22.528 0 0 0-22.4 22.4v115.776h640z" fill="#EA4E4E" p-id="10754"></path><path d="M304.896 437.568m-23.744 0a23.744 23.744 0 1 0 47.488 0 23.744 23.744 0 1 0-47.488 0Z" fill="#E1E1E3" p-id="10755"></path><path d="M312.32 415.872l5.12 2.56-20.416 41.792-5.12-2.56z" fill="#7C7C7C" p-id="10756"></path><path d="M703.872 437.568m-23.744 0a23.744 23.744 0 1 0 47.488 0 23.744 23.744 0 1 0-47.488 0Z" fill="#E1E1E3" p-id="10757"></path><path d="M711.36 415.872l5.12 2.56-20.352 41.728-5.12-2.496z" fill="#7C7C7C" p-id="10758"></path><path d="M192 506.688h640v14.336H192z" fill="#BDBDBD" p-id="10759"></path><path d="M441.6 822.592s58.496 57.472 171.776 24.128c0 0 138.624-54.656 258.624-96 0 0 56-13.312 88 0 0 0-51.968-33.344-54.656-54.656L441.6 822.592z" fill="#6A6A6A" p-id="10760"></path><path d="M192 521.024s163.968 272.32 256 304.32c0 0 66.688 26.752 142.656 9.344 0 0 297.344-69.184 369.344-153.92 0 0-105.6-7.232-128-159.744H192z" fill="#E2E2E2" p-id="10761"></path><path d="M537.344 818.112a245.12 245.12 0 0 1-81.024-13.632c-61.056-21.248-168-173.44-223.936-261.12h580.864c18.496 90.816 66.048 130.112 101.824 147.008-80.448 55.744-258.816 105.984-329.344 122.432a213.952 213.952 0 0 1-48.384 5.312z" fill="#FFFFFF" p-id="10762"></path><path d="M836.672 656a4.928 4.928 0 0 0-5.696-3.712c-22.016 4.8-45.248 9.408-69.12 13.888a454.656 454.656 0 0 1-15.808-34.112l59.456-6.336a4.736 4.736 0 0 0 4.224-5.248c-0.256-2.688-2.56-4.928-5.248-4.224l-62.208 6.656a597.248 597.248 0 0 1-12.416-35.2l62.464-3.904a4.864 4.864 0 0 0 4.48-5.12 4.864 4.864 0 0 0-4.8-4.48h-0.32l-64.96 4.032a415.616 415.616 0 0 1-5.632-19.456 4.8 4.8 0 1 0-9.28 2.368c0.256 1.088 2.176 8.128 5.056 17.664l-67.776 4.224c-5.312-14.464-8.512-24.256-8.64-24.576a4.864 4.864 0 0 0-6.016-3.072 4.8 4.8 0 0 0-3.136 6.016c0.448 1.344 3.264 9.92 7.68 22.272l-72.384 4.48c-7.296-17.344-11.904-29.44-12.096-29.824a4.8 4.8 0 0 0-9.024 3.328c0.576 1.536 4.48 11.904 10.944 27.2l-92.8 5.824c-12.096-21.376-19.712-36.352-20.032-36.864a4.8 4.8 0 0 0-6.4-2.112 4.8 4.8 0 0 0-2.176 6.464c0.96 1.92 7.488 14.784 17.792 33.216l-90.432 5.632a1197.248 1197.248 0 0 1-29.632-43.584c-1.408-2.24-4.416-2.944-6.656-1.472s-2.88 4.352-1.472 6.592c1.472 2.304 11.264 17.664 26.368 39.168l-39.296 2.432a4.864 4.864 0 0 0-4.48 5.184c0.128 2.496 2.24 4.48 4.8 4.48h0.32l45.248-2.816c10.496 14.72 22.912 31.424 36.672 48.768l-36.672 3.904a4.8 4.8 0 1 0 0.512 9.536l0.512-0.064 42.816-4.544c12.16 14.976 25.152 30.016 38.464 44.032-25.856 3.008-41.664 4.608-42.304 4.672a4.8 4.8 0 0 0-4.288 5.248 4.864 4.864 0 0 0 4.8 4.288l0.512-0.064c0.704-0.064 19.648-1.984 49.856-5.504 33.92 34.048 69.248 60.224 98.24 60.224l3.84-0.128a4.8 4.8 0 1 0-0.448-9.6h-0.384a27.904 27.904 0 0 1-3.264 0.192c-24.768 0-55.552-22.144-86.016-52.032 19.648-2.304 43.008-5.184 68.992-8.512 22.912 28.032 47.168 50.752 69.312 57.28a4.8 4.8 0 0 0 5.952-3.264 4.864 4.864 0 0 0-3.264-6.016c-19.008-5.568-40.128-25.024-60.736-49.472 22.72-2.944 47.04-6.272 72.32-9.856 15.04 23.744 31.36 45.056 48.128 57.792a4.416 4.416 0 0 0 2.88 1.024 4.992 4.992 0 0 0 3.84-1.92 4.672 4.672 0 0 0-0.96-6.656c-14.912-11.392-29.696-30.272-43.52-51.712 20.736-3.008 42.048-6.272 63.424-9.664 11.712 19.904 24.512 37.44 37.888 47.936a4.672 4.672 0 0 0 6.72-0.768 4.608 4.608 0 0 0-0.832-6.656c-11.712-9.216-23.104-24.448-33.728-42.048 20.032-3.328 40.128-6.72 59.84-10.304 10.944 19.84 23.36 37.824 37.44 48.896a4.672 4.672 0 0 0 6.72-0.768 4.608 4.608 0 0 0-0.832-6.656c-12.288-9.664-23.488-25.408-33.408-43.2a2176 2176 0 0 0 66.496-13.376c2.56-0.896 4.16-3.456 3.584-6.016z m-116.8-67.712c3.264 10.24 7.488 22.4 12.48 35.584l-64.128 6.784c-6.144-14.08-11.136-26.752-15.488-38.144l67.136-4.224z m-77.248 4.928c4.224 11.264 9.408 24.32 15.616 38.592l-68.288 7.168a981.76 981.76 0 0 1-19.136-41.344l71.808-4.416z m-82.112 5.12c5.312 12.288 11.712 26.368 19.264 41.728l-83.456 8.896a1120 1120 0 0 1-27.392-44.928l91.584-5.696z m-191.552 11.904l89.152-5.568c7.744 13.568 17.024 29.12 27.392 45.376l-79.872 8.448a1219.072 1219.072 0 0 1-36.672-48.256z m82.88 100.928a694.208 694.208 0 0 1-38.976-43.84l78.528-8.32c9.728 14.72 20.16 29.568 31.104 43.584-27.2 3.456-51.008 6.336-70.656 8.576z m81.6-10.048a643.392 643.392 0 0 1-31.232-43.264l81.984-8.704c7.104 14.016 14.976 28.096 23.296 41.856-25.984 3.776-50.88 7.104-74.048 10.112z m84.48-11.52c-8.256-13.568-16.064-27.52-23.232-41.536l67.648-7.104c5.888 13.056 12.48 26.176 19.584 38.912a4143.36 4143.36 0 0 1-64 9.728z m74.048-11.328a513.792 513.792 0 0 1-19.456-38.4l63.488-6.72c4.608 11.584 10.112 23.296 16 34.816-19.84 3.52-39.936 7.04-60.032 10.304z" fill="#C6C6C6" p-id="10763"></path><path d="M468.928 604.032l27.392 44.928 83.456-8.896-19.264-41.728z" fill="#EA4E4E" p-id="10764"></path></svg>